<svg version="1.0" xmlns="http://www.w3.org/2000/svg"
 width="1566.000000pt" height="1690.000000pt" viewBox="0 0 1566.000000 1690.000000"
 preserveAspectRatio="xMidYMid meet">

<g transform="translate(0.000000,1690.000000) scale(0.100000,-0.100000)"
fill="#000000" stroke="none">
<path d="M7810 16879 c-25 -5 -175 -15 -335 -24 -1000 -54 -2125 -157 -2855
-261 -636 -90 -1841 -337 -3195 -654 -647 -152 -650 -153 -652 -155 -8 -5 -97
-487 -132 -705 -252 -1605 -316 -3283 -181 -4725 157 -1668 566 -3061 1213
-4140 268 -446 765 -1123 1256 -1710 397 -474 737 -842 1275 -1381 672 -671
1184 -1135 1909 -1727 662 -542 1555 -1199 1847 -1360 l66 -36 101 59 c161 93
593 395 1000 702 1451 1092 2807 2354 3887 3618 542 634 1121 1419 1405 1905
104 177 288 543 376 745 719 1659 997 3863 804 6395 -59 783 -170 1627 -290
2211 l-32 150 -111 26 c-1833 435 -3117 701 -3878 803 -586 78 -1431 157
-2298 215 -168 11 -413 28 -545 36 -280 19 -571 25 -635 13z m835 -194 c1166
-72 2100 -160 2815 -266 620 -92 1940 -367 3330 -695 302 -71 313 -74 308 -80
-3 -2 -60 10 -129 27 -1083 264 -2674 602 -3359 713 -678 110 -1715 213 -2890
285 -720 45 -701 45 -1110 21 -1218 -68 -2241 -161 -3012 -271 -653 -93 -1910
-352 -3341 -689 -209 -50 -382 -88 -384 -86 -5 4 138 39 667 162 938 218 1882
419 2539 540 757 139 1848 253 3251 339 140 9 318 20 395 25 190 12 433 5 920
-25z m-198 -375 c1217 -73 2279 -171 2973 -275 475 -72 1495 -278 2500 -506
458 -104 851 -197 856 -202 19 -19 195 -1260 180 -1274 -2 -2 -226 -3 -497 -3
-484 0 -495 0 -539 -21 -78 -37 -123 -97 -166 -224 -23 -68 -28 -101 -32 -220
-2 -77 0 -164 6 -194 12 -66 9 -77 -26 -89 -76 -26 -151 -131 -183 -253 -29
-113 -32 -316 -6 -438 28 -129 77 -217 145 -258 48 -30 70 -29 103 3 15 14 32
23 38 20 12 -8 16 -339 5 -395 l-7 -31 -321 2 -321 3 4 140 c5 203 -19 320
-89 433 -57 92 -168 122 -229 62 -64 -65 -119 -227 -136 -407 -10 -95 -13 -99
-61 -74 -85 46 -156 16 -204 -83 -35 -73 -70 -211 -70 -276 0 -94 7 -90 -159
-90 -80 0 -176 3 -213 7 l-68 6 0 1188 0 1189 -334 0 -333 0 -7 -61 c-3 -34
-6 -782 -6 -1663 l-1 -1601 -36 40 c-31 35 -102 126 -168 213 -11 15 -47 60
-80 100 -33 41 -81 100 -106 133 -26 32 -72 86 -104 120 -31 34 -68 79 -82
100 -20 31 -29 37 -42 29 -41 -22 -42 -30 -37 -267 3 -125 6 -250 5 -278 -4
-595 -11 -895 -20 -895 -12 0 -67 59 -139 150 -58 73 -360 443 -440 538 -33
39 -65 84 -70 98 -6 14 -10 79 -10 144 0 143 -7 167 -52 174 -122 19 -114 20
-143 -30 l-27 -45 29 -37 c38 -51 132 -163 155 -185 22 -21 20 2 22 -281 l1
-229 40 -12 c119 -35 294 -162 328 -237 23 -49 17 -95 -18 -136 -58 -69 -144
-69 -227 0 -58 49 -113 88 -122 88 -4 0 -6 -214 -6 -475 1 -261 -1 -479 -5
-485 -3 -5 -14 -10 -23 -10 -70 0 -172 -167 -193 -315 -7 -49 -9 -139 -5 -233
l6 -153 -43 -18 c-60 -26 -137 -132 -168 -231 -21 -67 -24 -94 -24 -240 1
-126 5 -180 18 -229 34 -120 57 -169 105 -220 41 -44 53 -51 85 -51 27 0 45 7
63 25 14 14 27 25 29 25 8 0 5 -394 -3 -407 -8 -13 -617 -22 -630 -9 -4 4 -7
80 -8 169 0 180 -10 229 -70 348 -36 73 -85 117 -139 126 -48 8 -75 -2 -118
-42 -64 -59 -102 -182 -123 -398 -4 -37 -10 -70 -15 -72 -4 -3 -29 6 -55 20
-26 14 -56 25 -66 25 -48 0 -96 -47 -140 -139 l-31 -64 12 -119 c7 -66 15
-126 18 -134 4 -12 120 -14 758 -14 677 0 753 2 759 16 3 9 6 538 6 1176 l0
1161 35 -6 c66 -11 149 -131 180 -262 22 -93 31 -288 16 -363 -14 -72 -9 -88
35 -102 75 -25 153 -159 179 -308 22 -124 19 -286 -6 -385 -44 -179 -82 -246
-155 -278 -49 -22 -89 -17 -105 12 -22 42 -29 2 -29 -175 0 -128 4 -186 12
-194 9 -9 94 -12 320 -12 l307 0 -6 118 c-10 193 21 342 93 450 44 67 84 92
147 92 86 0 137 -58 183 -208 19 -62 44 -231 44 -300 0 -10 9 -12 33 -7 17 4
37 11 42 15 16 13 77 14 105 3 72 -30 119 -151 156 -400 l6 -43 208 0 c115 0
211 4 214 9 3 4 6 345 6 757 1 656 3 747 16 729 28 -37 149 -180 183 -215 19
-19 104 -118 190 -220 85 -102 181 -215 213 -253 32 -37 61 -79 64 -93 4 -14
4 -535 1 -1157 -4 -623 -7 -1207 -7 -1299 l0 -168 -1225 0 -1225 0 0 89 c0 48
-5 112 -10 141 -11 59 -2 80 34 80 48 1 124 101 169 220 56 150 39 454 -33
609 -61 130 -140 174 -209 115 l-30 -25 -6 23 c-8 33 0 331 9 346 5 9 86 12
326 12 l318 0 -5 -134 c-7 -171 14 -297 66 -400 90 -175 230 -181 309 -13 39
82 78 264 81 385 1 28 20 28 66 1 44 -26 106 -21 140 11 27 26 95 155 95 181
0 9 6 44 14 76 8 32 16 83 18 113 l3 55 -185 6 c-102 4 -454 7 -783 8 l-597 1
-10 -26 c-6 -16 -10 -373 -10 -950 l0 -924 -121 0 -122 0 6 108 c4 59 9 124
13 144 6 35 5 37 -32 53 -62 26 -98 59 -131 122 -66 123 -89 316 -64 518 18
137 97 315 141 315 10 0 20 6 23 14 3 8 19 17 36 21 24 5 36 1 57 -19 15 -14
31 -23 36 -20 4 3 8 79 8 169 l0 164 -42 5 c-24 3 -167 5 -318 3 l-275 -2 4
-125 c6 -227 -40 -393 -134 -485 -44 -42 -50 -45 -101 -45 -48 0 -58 4 -93 35
-69 62 -125 228 -138 403 -5 80 -8 92 -22 86 -116 -49 -136 -50 -178 -11 -13
11 -23 16 -23 11 0 -5 29 -249 65 -543 35 -294 62 -538 59 -542 -2 -4 -116
-78 -252 -165 -136 -86 -272 -174 -304 -195 l-56 -39 -258 165 -259 165 -2147
0 c-1182 0 -2148 -3 -2148 -7 0 -5 54 -73 120 -153 66 -79 117 -146 114 -149
-3 -3 -13 4 -22 16 -9 11 -92 112 -184 224 -283 346 -565 720 -818 1087 -501
728 -849 1535 -1090 2527 -174 712 -277 1463 -332 2410 -16 265 -15 1458 0
1675 l11 145 -4 -147 c-2 -104 0 -148 9 -151 8 -3 7 -9 -3 -21 -11 -14 -15
-109 -19 -521 -5 -478 -4 -505 13 -505 15 0 16 -2 4 -21 -29 -42 12 -794 72
-1344 12 -104 23 -192 25 -195 3 -2 36 -6 75 -8 69 -4 69 -4 108 35 32 31 42
51 52 101 14 67 25 78 35 35 13 -65 38 -114 70 -143 30 -25 43 -30 89 -30 29
0 65 4 79 10 53 20 26 -19 -49 -72 -41 -29 -77 -59 -79 -66 -3 -6 8 -53 24
-104 17 -50 28 -93 26 -95 -3 -3 -39 20 -80 51 -42 31 -83 56 -92 56 -9 0 -47
-22 -84 -50 -37 -27 -70 -50 -74 -50 -12 0 -6 41 14 97 30 87 28 96 -41 148
-33 26 -63 45 -66 42 -13 -13 97 -691 158 -966 16 -74 29 -136 29 -138 0 -1
1340 -3 2979 -3 l2978 0 -10 40 c-10 35 -7 48 27 130 49 122 57 201 26 264
-31 64 -62 86 -122 86 -97 0 -161 -56 -233 -203 -47 -96 -84 -127 -150 -127
-80 0 -152 76 -141 149 7 48 69 173 121 247 39 54 101 112 161 151 15 9 -332
12 -1548 12 l-1568 1 0 375 0 375 879 0 879 0 6 24 c9 38 57 79 145 125 186
97 373 106 529 27 l49 -25 59 33 59 33 6 80 c8 106 39 171 118 251 l61 62 -26
39 c-17 26 -42 47 -77 63 l-52 23 -1317 3 -1318 2 0 375 0 375 788 0 787 0 -3
50 c-3 37 1 58 17 83 31 50 62 62 150 60 151 -5 310 -64 401 -149 l48 -45 213
4 c191 4 323 18 387 42 26 10 14 88 -24 151 -84 136 -87 144 -92 223 -2 42 1
94 7 116 10 37 9 41 -17 68 -15 16 -39 38 -55 49 -26 19 -30 19 -97 4 -38 -9
-88 -16 -112 -16 -72 0 -177 28 -250 65 l-70 35 -1039 0 -1039 0 0 375 0 375
1165 0 1164 0 38 40 c63 68 127 68 209 0 l49 -40 383 0 383 0 -52 43 c-63 51
-129 144 -159 223 -52 142 -65 244 -35 290 54 82 186 83 239 2 8 -13 22 -54
31 -92 30 -133 74 -202 150 -237 59 -27 94 -24 139 13 74 61 94 164 61 307
-20 82 -12 124 32 167 l34 34 -3270 0 c-2606 0 -3270 -3 -3274 -12 -11 -28 -6
46 19 252 44 370 143 1022 157 1036 15 15 1404 329 2049 463 380 79 888 177
1113 215 616 103 1636 207 2765 281 781 51 851 53 1317 25z m-7430 -2357 c-2
-16 -4 -5 -4 22 0 28 2 40 4 28 2 -13 2 -35 0 -50z m12986 56 c70 -37 110
-100 158 -249 22 -68 24 -90 22 -230 -1 -85 -4 -170 -5 -189 -3 -31 1 -36 42
-58 51 -27 90 -61 90 -78 0 -7 9 -23 19 -37 63 -80 100 -287 81 -456 -11 -96
-25 -168 -39 -187 -4 -5 -17 -37 -30 -70 -13 -33 -35 -75 -48 -93 -45 -60
-123 -81 -158 -42 -10 11 -22 17 -26 14 -13 -7 -11 -371 1 -379 5 -3 150 -9
321 -12 l312 -6 -7 99 c-7 106 7 292 24 321 5 10 19 43 30 73 28 78 53 115
101 150 68 49 160 34 172 -29 10 -46 21 -822 13 -864 l-7 -38 -552 3 -552 3
-5 -1130 c-3 -621 -3 -1140 -1 -1152 4 -29 23 -29 72 -1 73 41 144 226 151
393 1 39 -1 120 -6 181 l-8 112 37 12 c153 51 237 333 190 642 -28 189 -118
338 -204 338 -11 0 -33 -11 -49 -25 -17 -14 -33 -25 -36 -25 -3 0 -6 76 -6
169 0 130 3 171 14 180 9 8 103 11 322 9 l309 -3 -4 -135 c-5 -204 28 -349
100 -440 49 -62 88 -83 145 -78 24 2 45 -1 47 -5 6 -19 -30 -414 -64 -697 -63
-531 -193 -1205 -309 -1605 l-28 -100 -1 420 c-1 313 -4 424 -13 433 -9 9 -91
12 -309 12 -163 0 -311 3 -328 6 -30 6 -31 8 -31 63 0 80 -7 99 -40 106 -65
14 -147 150 -175 290 -13 61 -16 122 -13 254 l3 175 -29 7 c-34 9 -89 59 -120
109 -36 57 -54 113 -72 222 -39 244 17 510 132 625 36 35 50 43 81 43 24 0 45
-7 60 -22 l23 -21 2 124 c3 167 2 179 -14 195 -18 19 -590 33 -611 15 -12 -9
-14 -33 -10 -115 9 -159 -17 -308 -71 -415 -76 -148 -185 -173 -274 -62 -63
79 -95 185 -118 399 -7 65 -15 72 -50 48 -80 -57 -176 -3 -231 129 -26 62 -55
227 -51 286 l3 44 777 -4 c764 -3 776 -3 787 16 7 14 10 386 11 1174 0 1245
-2 1187 53 1158z m-12996 -156 c-2 -16 -4 -5 -4 22 0 28 2 40 4 28 2 -13 2
-35 0 -50z m-12 -143 c-4 -55 -10 -99 -12 -96 -3 3 -2 50 2 106 4 56 9 99 12
96 3 -2 1 -50 -2 -106z m935 21 c39 -111 32 -105 150 -111 l105 -5 -83 -60
c-94 -68 -91 -58 -54 -190 11 -38 18 -72 15 -75 -2 -2 -14 8 -26 22 -73 87
-174 88 -276 3 -39 -34 -40 -21 -6 82 14 42 24 82 21 89 -3 7 -37 36 -76 65
-39 28 -68 54 -65 57 3 3 37 6 75 6 53 1 75 6 97 22 40 30 63 74 70 134 5 47
8 51 20 35 7 -11 22 -44 33 -74z m1225 0 c11 -45 25 -77 41 -92 23 -21 33 -23
116 -21 l92 3 -20 -22 c-10 -12 -44 -39 -76 -60 -31 -21 -58 -44 -60 -51 -3
-7 8 -52 24 -101 16 -49 26 -92 24 -95 -3 -3 -38 19 -78 48 -78 57 -107 64
-141 33 -28 -26 -99 -73 -109 -73 -14 0 -9 38 12 90 34 87 30 100 -50 159 -39
28 -68 56 -65 61 3 5 25 7 48 4 99 -14 179 42 193 133 12 86 25 82 49 -16z
m-2178 -213 c-2 -18 -4 -6 -4 27 0 33 2 48 4 33 2 -15 2 -42 0 -60z m-10 -130
c-2 -18 -4 -4 -4 32 0 36 2 50 4 33 2 -18 2 -48 0 -65z m-10 -135 c-2 -21 -4
-6 -4 32 0 39 2 55 4 38 2 -18 2 -50 0 -70z m1625 -140 c6 -8 47 -13 115 -15
l106 -3 -81 -58 c-45 -32 -84 -67 -87 -77 -3 -10 3 -40 13 -66 11 -27 23 -64
27 -81 9 -46 -10 -43 -83 12 -33 25 -69 45 -81 45 -12 0 -55 -25 -96 -55 -41
-31 -75 -50 -75 -43 0 7 12 48 26 91 14 43 23 88 20 100 -3 12 -25 34 -48 49
-24 15 -59 41 -78 58 l-35 30 80 -1 c122 -1 123 -1 141 25 8 14 21 46 29 73 7
26 18 62 25 78 13 30 13 30 42 -60 16 -49 34 -95 40 -102z m-1271 106 c8 -35
21 -74 27 -86 17 -30 70 -43 155 -36 l72 6 -20 -23 c-11 -12 -45 -40 -76 -61
-31 -21 -59 -45 -62 -52 -3 -8 7 -55 23 -103 16 -49 27 -91 25 -93 -5 -4 -59
33 -103 71 -44 38 -90 38 -134 0 -41 -35 -80 -62 -90 -62 -14 0 -9 33 13 96
13 37 19 71 15 85 -4 14 -35 44 -76 73 -39 27 -68 52 -65 54 3 3 38 6 78 6
109 1 158 43 172 148 9 66 26 57 46 -23z m-367 -181 c-4 -89 -9 -157 -12 -150
-6 18 9 325 15 318 2 -2 1 -78 -3 -168z m991 -361 c31 -91 31 -92 65 -94 107
-8 160 -16 160 -23 0 -5 -31 -31 -70 -59 -41 -30 -70 -59 -70 -69 0 -9 12 -53
25 -96 14 -43 24 -82 23 -87 -2 -4 -37 17 -78 47 -41 30 -82 54 -92 54 -10 0
-52 -25 -93 -55 -41 -31 -75 -50 -75 -43 0 7 12 47 27 90 33 92 27 112 -43
161 -26 17 -59 42 -73 54 l-26 22 101 1 c69 0 105 4 112 13 5 6 22 51 38 99
15 48 30 85 33 82 3 -2 19 -46 36 -97z m1219 11 c9 -32 27 -70 40 -85 23 -26
31 -28 117 -33 l93 -5 -71 -53 c-39 -29 -76 -58 -82 -66 -8 -9 -3 -35 19 -101
17 -49 30 -93 30 -97 0 -9 -74 38 -123 79 -41 33 -64 29 -137 -27 -36 -28 -68
-50 -72 -50 -13 0 -9 34 13 98 12 35 18 73 15 86 -3 13 -35 47 -71 75 -36 28
-65 56 -65 61 0 6 39 10 95 10 93 0 95 0 109 28 7 15 17 43 21 62 10 48 35 94
45 84 4 -5 15 -35 24 -66z m-1839 -527 c28 -101 45 -113 149 -110 51 2 81 0
83 -7 2 -6 -25 -30 -61 -53 -83 -54 -94 -80 -65 -159 39 -108 36 -127 -12 -76
-69 74 -156 73 -256 -4 l-33 -24 0 25 c0 15 9 49 20 77 33 83 29 93 -50 151
-38 28 -70 55 -70 60 0 5 38 9 84 9 104 0 115 8 146 113 13 42 28 76 34 74 6
-2 20 -36 31 -76z m1218 47 c8 -18 19 -51 23 -72 4 -22 17 -50 30 -63 21 -21
32 -23 116 -23 l93 0 -30 -25 c-16 -14 -51 -39 -77 -56 -26 -17 -50 -38 -53
-48 -3 -9 6 -50 20 -90 40 -112 33 -123 -40 -61 -91 77 -108 77 -201 5 -61
-48 -81 -56 -69 -27 59 138 43 209 -59 259 -30 15 -53 30 -50 35 3 4 45 8 93
8 54 0 93 5 104 13 9 6 28 49 42 95 14 45 30 82 34 82 5 0 16 -15 24 -32z
m605 -502 c6 -13 14 -41 18 -63 8 -44 28 -88 46 -100 7 -4 57 -10 112 -13 l99
-5 -82 -58 c-58 -43 -81 -65 -81 -80 0 -12 12 -57 25 -101 14 -43 23 -81 21
-83 -3 -3 -40 20 -83 51 -42 31 -83 56 -89 56 -7 0 -25 -10 -41 -23 -15 -13
-49 -38 -75 -56 -47 -31 -48 -32 -48 -9 1 13 11 55 24 93 13 39 21 76 18 83
-2 7 -38 38 -78 68 -83 61 -93 79 -36 67 125 -26 201 26 219 152 6 51 15 56
31 21z m-1198 -87 c11 -37 26 -72 33 -77 7 -6 57 -13 111 -14 l99 -3 -82 -58
c-91 -66 -93 -71 -61 -155 11 -29 20 -63 20 -77 l0 -25 -45 35 c-78 59 -152
59 -231 -1 -25 -19 -49 -33 -52 -30 -3 4 4 37 16 74 35 107 32 117 -57 181
-33 24 -58 48 -55 53 3 5 41 7 84 6 100 -4 118 11 150 119 21 70 24 75 37 58
7 -11 22 -49 33 -86z m-613 -541 c36 -61 118 -87 206 -65 48 13 30 -15 -44
-68 -39 -27 -75 -57 -80 -66 -6 -11 1 -45 21 -105 17 -48 30 -92 30 -97 0 -5
-21 7 -47 26 -134 97 -131 96 -197 41 -32 -28 -96 -61 -96 -50 0 2 7 23 15 46
33 95 6 181 -72 227 -58 33 -58 54 -1 41 111 -24 190 34 214 157 l7 40 13 -47
c6 -26 20 -62 31 -80z m1204 81 c5 -13 13 -43 19 -67 16 -61 40 -82 98 -83 26
0 67 -4 92 -8 l45 -7 -72 -52 c-39 -29 -74 -60 -77 -69 -4 -8 5 -51 19 -95 14
-45 24 -83 22 -85 -9 -8 -54 16 -96 51 -23 20 -54 36 -67 36 -13 0 -55 -23
-94 -51 -39 -29 -73 -49 -77 -46 -3 4 4 35 16 69 29 82 34 119 19 139 -7 8
-41 34 -75 57 -35 24 -63 47 -63 52 0 6 37 9 89 8 110 -4 123 6 154 109 21 75
35 86 48 42z m-591 -587 c12 -40 27 -75 33 -79 6 -4 51 -7 101 -7 50 -1 91 -5
93 -11 1 -6 -17 -21 -43 -34 -91 -48 -118 -110 -89 -203 9 -29 19 -59 22 -66
3 -7 -30 10 -73 38 -89 58 -90 58 -182 -7 -35 -25 -65 -43 -67 -41 -2 2 8 41
22 87 32 102 28 115 -65 179 -34 24 -62 48 -62 54 0 6 34 8 90 6 69 -2 92 0
103 12 8 8 27 52 42 98 24 75 29 81 40 65 7 -10 23 -51 35 -91z m1200 75 c0
-31 43 -118 70 -142 17 -15 36 -20 84 -20 33 0 71 4 84 8 32 12 28 -8 -10 -40
-105 -92 -108 -95 -108 -127 0 -18 7 -56 16 -85 25 -85 17 -90 -55 -32 -41 33
-73 51 -91 51 -27 0 -76 -29 -135 -78 l-30 -25 -3 22 c-2 13 6 45 17 71 39 91
31 115 -60 176 -38 25 -69 50 -69 56 0 6 36 8 94 6 104 -3 120 4 132 55 21 98
64 167 64 104z m8247 -121 c59 -71 125 -152 147 -180 21 -28 59 -73 85 -101
41 -43 132 -147 261 -298 l35 -41 5 -350 c3 -193 3 -360 2 -372 -4 -21 -6 -21
-321 -19 -175 1 -323 5 -329 9 -15 9 -17 1490 -3 1484 5 -1 58 -61 118 -132z
m-8830 -492 c33 -64 120 -91 211 -65 17 5 32 8 32 6 0 -2 -34 -29 -75 -60
-100 -74 -105 -88 -69 -192 15 -45 26 -84 23 -87 -2 -2 -38 20 -79 50 -41 30
-81 54 -90 54 -8 0 -49 -25 -90 -56 -41 -30 -76 -51 -78 -46 -1 5 9 45 23 88
13 43 25 87 25 96 0 10 -29 39 -70 69 -38 28 -70 55 -70 60 0 5 38 9 84 9 81
0 85 1 108 29 14 16 33 57 42 92 26 93 39 104 47 41 4 -28 15 -68 26 -88z
m8119 -175 c31 -45 73 -100 93 -124 20 -23 59 -71 86 -106 28 -35 57 -71 66
-79 9 -8 56 -64 103 -125 48 -60 109 -138 136 -172 28 -35 50 -67 50 -73 0
-11 -566 -15 -594 -4 -14 5 -16 49 -16 385 0 227 4 379 9 379 5 0 35 -36 67
-81z m-8741 -314 c15 -44 31 -84 36 -90 6 -5 55 -12 111 -15 l101 -5 -77 -55
c-45 -32 -79 -64 -83 -77 -3 -13 2 -41 11 -63 22 -54 36 -120 26 -120 -5 0
-28 16 -52 35 -62 50 -97 67 -122 61 -12 -3 -48 -26 -80 -51 -59 -45 -82 -56
-72 -32 23 54 37 123 32 153 -9 45 -51 93 -103 116 -24 10 -43 23 -43 28 0 6
41 10 94 10 69 0 98 4 109 14 8 8 26 54 41 102 15 47 31 83 36 78 4 -5 20 -45
35 -89z m1210 38 c38 -135 46 -143 162 -143 50 0 83 -4 83 -10 0 -6 -21 -25
-47 -43 -100 -68 -109 -90 -73 -168 20 -44 27 -99 12 -99 -4 0 -32 20 -62 45
-63 52 -101 64 -133 41 -12 -9 -44 -32 -72 -52 -27 -19 -51 -32 -52 -27 -2 5
5 42 16 83 10 42 15 83 11 95 -4 11 -37 44 -74 74 -36 30 -65 56 -62 58 2 3
45 4 94 4 108 0 109 1 147 117 14 45 28 82 31 82 2 0 11 -26 19 -57z m9445
-505 c-3 -51 -9 -92 -13 -91 -12 3 -137 160 -137 173 0 6 30 10 78 10 l77 0
-5 -92z m1345 79 c0 -1 -1 -402 -3 -890 -2 -701 -5 -888 -15 -885 -6 3 -51 53
-99 112 -47 59 -109 132 -137 164 -27 31 -63 76 -78 99 -15 23 -51 68 -80 100
-28 32 -66 76 -85 98 -18 22 -42 50 -53 61 -11 11 -37 39 -58 62 -21 23 -42
42 -47 42 -6 0 -10 -225 -11 -602 -1 -332 -4 -660 -8 -730 l-6 -128 -45 56
c-25 31 -62 74 -83 97 -21 23 -55 67 -75 97 -35 54 -227 292 -287 356 -16 17
-41 47 -55 65 -14 18 -44 54 -67 80 l-41 47 3 669 c4 810 3 773 14 773 5 0 39
-40 77 -90 37 -49 71 -90 75 -90 5 0 33 -33 63 -72 29 -40 84 -107 121 -148
37 -41 117 -137 178 -212 61 -76 116 -138 123 -138 7 0 15 7 18 16 4 9 6 233
6 498 0 264 0 486 0 492 0 9 85 11 327 8 180 -3 327 -6 328 -7z m42 -1874 c38
-56 85 -118 135 -178 l58 -69 -101 -195 c-56 -108 -107 -204 -115 -215 -12
-18 -14 24 -14 311 0 366 3 396 37 346z m-637 -746 c43 -59 85 -110 170 -207
47 -54 140 -177 140 -185 0 -8 -105 -158 -259 -370 l-116 -159 -3 479 c-1 264
0 486 3 493 8 21 19 13 65 -51z m-6776 -1823 l47 -7 -3 -51 -3 -51 -94 -3
c-52 -1 -101 -8 -108 -14 -7 -6 -13 -30 -13 -54 l0 -44 98 0 c108 0 122 -6
122 -55 0 -49 -14 -55 -122 -55 l-98 0 0 -47 c0 -74 6 -77 117 -83 l98 -5 3
-44 c2 -28 -1 -47 -10 -52 -7 -5 -62 -9 -121 -9 -86 0 -115 4 -145 19 -63 32
-72 64 -72 267 0 222 9 248 97 280 41 14 133 18 207 8z m469 -10 c15 -5 17
-16 15 -57 l-3 -50 -110 -1 -110 -1 0 -28 c0 -26 10 -34 94 -81 52 -29 106
-67 119 -84 58 -76 29 -196 -58 -239 -37 -19 -59 -23 -135 -22 -134 1 -139 4
-143 68 l-3 54 90 -7 c93 -8 123 -1 135 29 11 29 -12 52 -98 105 -96 57 -132
95 -142 145 -15 83 26 152 103 174 39 11 214 7 246 -5z m1260 2 c52 -19 75
-42 87 -88 23 -85 -12 -145 -134 -228 -74 -50 -109 -83 -119 -112 -6 -17 4
-18 111 -18 79 0 122 -4 130 -12 16 -16 15 -83 -2 -97 -9 -8 -66 -11 -182 -9
l-169 3 -3 65 c-6 121 23 170 158 265 80 57 95 75 85 106 -9 26 -43 32 -145
27 -72 -4 -90 -3 -94 9 -10 26 -6 60 8 72 35 29 205 39 269 17z m475 -2 c99
-41 125 -107 120 -297 -3 -119 -6 -137 -28 -177 -36 -64 -86 -90 -175 -90
-148 0 -205 79 -205 285 0 117 18 192 58 236 49 55 155 75 230 43z m-1243 -49
l0 -50 -67 -3 -68 -3 0 -217 c0 -156 -3 -221 -12 -230 -16 -16 -100 -16 -116
0 -9 9 -12 74 -12 230 l0 217 -62 3 -63 3 -3 53 -3 52 203 -2 203 -3 0 -50z
m1733 -219 c2 -190 -1 -273 -9 -282 -14 -17 -100 -19 -117 -2 -9 9 -12 70 -12
215 0 135 -4 203 -10 203 -6 0 -24 -7 -41 -15 -40 -21 -49 -13 -49 43 l0 48
63 31 c50 26 72 32 117 30 l55 -2 3 -269z m596 258 c3 -9 6 -26 6 -39 0 -22
-200 -474 -223 -502 -11 -15 -123 -18 -131 -4 -3 4 42 106 99 226 58 120 105
220 105 221 0 2 -45 4 -99 4 -55 0 -106 3 -115 6 -11 4 -16 19 -16 48 0 24 3
46 7 49 3 4 86 7 184 7 152 0 178 -2 183 -16z m-2149 -489 l0 -60 -55 0 -55 0
-3 49 c-5 72 -1 78 60 74 l53 -3 0 -60z m535 -351 c158 -24 163 -31 19 -26
-100 3 -157 0 -215 -11 -75 -16 -83 -15 -153 3 -41 11 -93 20 -115 20 -33 1
-37 3 -24 11 22 12 217 26 318 21 41 -1 118 -9 170 -18z m-497 -49 c166 -17
189 -27 198 -76 5 -34 -2 -48 -96 -183 -83 -119 -121 -163 -202 -235 -55 -49
-110 -101 -122 -116 -20 -27 -24 -28 -86 -22 -80 8 -208 -7 -321 -37 -97 -26
-94 -28 -113 62 -14 66 -14 165 -1 213 23 81 193 234 344 308 82 41 233 100
256 101 3 0 67 -7 143 -15z m982 -116 c83 -47 205 -135 205 -148 0 -5 -24 -2
-52 7 -41 11 -70 31 -125 82 -39 37 -103 83 -142 104 -39 20 -71 39 -71 41 0
8 112 -44 185 -86z m-593 -195 c118 -25 252 -64 366 -106 51 -19 54 -22 96
-106 53 -107 94 -247 108 -370 6 -51 9 -94 7 -96 -5 -4 -480 -310 -496 -319
-6 -4 -127 29 -270 72 -273 84 -293 91 -293 98 0 2 -27 106 -60 230 -33 124
-60 231 -60 237 0 14 159 171 232 229 66 54 221 157 235 157 7 0 68 -12 135
-26z m813 -14 c67 -32 183 -126 231 -186 17 -22 50 -73 72 -115 l42 -76 -146
-229 c-80 -126 -147 -230 -149 -232 -2 -2 -215 147 -234 164 -2 2 -10 49 -17
105 -17 128 -55 261 -106 367 -22 46 -37 87 -33 90 3 3 56 39 118 79 125 82
123 81 222 33z m-1989 -183 c0 -58 7 -114 18 -151 l18 -59 -51 -96 c-27 -53
-61 -135 -75 -183 -40 -139 -86 -219 -182 -316 -67 -67 -85 -81 -90 -68 -4 10
-4 86 -1 169 5 166 27 269 86 423 35 91 118 235 170 296 30 35 86 78 101 78 3
0 5 -42 6 -93z m2450 -638 c16 -18 19 -36 18 -123 0 -55 -6 -135 -13 -176
l-12 -74 -177 -238 c-97 -130 -180 -237 -184 -238 -5 0 -8 8 -8 18 0 9 -14 44
-30 77 -16 33 -30 63 -30 67 0 3 20 39 44 78 63 102 103 218 117 342 l12 103
60 35 c33 19 85 61 116 92 31 31 59 57 62 57 3 1 14 -8 25 -20z m-1462 -129
c341 -108 332 -105 345 -128 5 -10 23 -70 39 -133 l29 -114 -241 -292 c-133
-160 -244 -294 -247 -298 -18 -18 -312 71 -430 131 -46 23 -47 24 -97 156 -56
150 -98 296 -108 379 l-6 56 91 78 c141 120 315 254 329 255 8 0 141 -40 296
-90z m-1057 -18 c26 -26 104 -90 173 -141 69 -52 128 -101 132 -110 4 -9 7
-30 7 -47 1 -51 47 -220 97 -357 l47 -127 -59 -63 c-95 -100 -96 -101 -170
-94 -35 4 -77 13 -93 21 -39 20 -154 149 -214 239 -84 125 -168 323 -192 449
-9 48 20 111 80 173 35 35 128 105 141 105 2 0 25 -21 51 -48z m2067 -604 l14
-31 -261 -291 c-143 -160 -270 -295 -281 -299 -29 -12 -292 -2 -338 12 -33 10
-39 19 -66 84 -17 39 -33 88 -37 108 -7 36 -6 37 52 69 135 77 305 214 366
298 l36 48 118 -3 c85 -3 148 1 228 15 155 27 154 27 169 -10z m-1717 -438
c32 -29 85 -71 117 -92 33 -21 56 -38 52 -38 -32 0 -316 170 -316 190 0 4 20
4 44 0 35 -5 57 -18 103 -60z m856 -205 c34 -8 89 -18 122 -22 l60 -9 -103
-12 c-126 -15 -211 -15 -324 -1 -136 16 -147 24 -40 26 53 2 122 9 152 17 72
18 62 18 133 1z"/>
<path d="M2620 15480 c-215 -34 -352 -161 -396 -368 -19 -94 -19 -452 1 -547
41 -195 160 -321 345 -366 110 -26 390 -8 426 28 11 12 14 37 12 117 l-3 101
-165 -4 c-223 -5 -267 13 -312 128 -20 51 -22 74 -22 261 0 216 6 261 46 320
50 73 59 75 261 74 126 -1 184 2 189 10 4 6 8 55 8 108 0 83 -3 99 -18 107
-49 26 -280 45 -372 31z"/>
<path d="M3575 15479 c-213 -32 -344 -158 -390 -375 -20 -95 -20 -443 0 -539
40 -189 155 -317 325 -361 76 -20 240 -22 314 -5 131 31 235 111 291 224 53
109 65 181 65 412 0 231 -12 303 -65 411 -53 109 -149 187 -267 218 -76 20
-200 27 -273 15z m207 -276 c39 -23 74 -71 90 -127 17 -56 17 -426 0 -482 -31
-104 -90 -149 -197 -149 -81 0 -126 21 -162 74 -35 52 -43 94 -50 251 -9 228
15 359 75 413 54 49 178 59 244 20z"/>
<path d="M8101 15479 c-138 -10 -191 -28 -202 -69 -12 -43 -10 -1114 1 -1147
10 -28 29 -43 73 -57 10 -3 89 -10 177 -16 407 -27 620 56 675 265 40 155 4
292 -96 365 l-39 28 30 19 c78 49 115 144 108 277 -8 143 -61 227 -180 281
-114 52 -310 72 -547 54z m374 -258 c34 -15 49 -29 60 -55 34 -81 8 -167 -59
-197 -33 -15 -66 -19 -168 -19 l-128 0 0 143 c0 79 3 147 8 152 4 4 60 5 124
2 87 -4 130 -11 163 -26z m1 -497 c51 -25 77 -72 77 -138 0 -70 -24 -113 -77
-136 -49 -22 -183 -36 -250 -26 l-46 7 0 153 c0 84 3 156 8 160 4 5 61 6 128
4 92 -4 130 -9 160 -24z"/>
<path d="M9960 15484 c-96 -16 -153 -48 -189 -107 -23 -38 -296 -1151 -286
-1168 10 -15 282 -12 292 4 4 6 21 75 38 152 l32 140 176 3 175 2 12 -57 c27
-132 51 -228 62 -240 8 -10 46 -13 145 -13 111 0 135 3 139 15 5 13 -167 757
-242 1045 -31 120 -58 161 -126 193 -52 25 -169 41 -228 31z m85 -266 c3 -13
27 -122 54 -243 l48 -220 -120 -3 c-66 -1 -122 -1 -124 2 -5 4 95 464 103 478
10 16 34 7 39 -14z"/>
<path d="M13005 15480 c-131 -18 -256 -89 -317 -182 -50 -75 -76 -154 -89
-265 -15 -129 -6 -417 16 -497 72 -261 270 -377 595 -346 61 6 127 17 146 25
l35 14 -3 108 -3 108 -155 -4 c-186 -4 -224 4 -273 58 -57 63 -62 90 -62 342
l0 225 30 59 c23 46 40 64 75 83 43 23 51 24 215 20 l170 -3 3 108 3 108 -35
14 c-18 8 -83 19 -142 25 -119 11 -122 11 -209 0z"/>
<path d="M11388 15465 c-109 -30 -181 -96 -215 -198 -15 -46 -17 -112 -21
-545 -2 -371 0 -497 9 -508 9 -11 41 -14 140 -14 117 0 129 2 139 19 6 12 10
115 10 265 l0 246 223 0 c122 0 228 4 235 8 9 6 12 36 10 113 l-3 104 -232 3
-233 2 0 111 c0 103 1 111 25 134 24 25 25 25 229 25 173 0 207 2 220 16 12
12 16 36 16 102 0 48 -4 92 -8 99 -20 31 -444 46 -544 18z"/>
<path d="M4401 15456 c-9 -11 -11 -137 -9 -518 4 -578 2 -563 92 -654 60 -59
113 -81 234 -95 88 -10 330 3 377 21 24 9 25 12 25 108 0 63 -4 102 -12 110
-8 8 -66 12 -193 12 l-182 0 -24 26 -24 26 -5 486 -5 487 -131 3 c-105 2 -134
0 -143 -12z"/>
<path d="M5279 15449 c-8 -16 -10 -143 -6 -458 3 -363 7 -446 20 -494 63 -221
203 -311 482 -310 269 1 411 96 466 311 18 72 19 108 17 522 l-3 445 -140 0
-140 0 -5 -450 c-6 -481 -6 -483 -58 -538 -77 -80 -267 -58 -316 38 -20 38
-21 59 -24 484 -2 301 -6 449 -14 458 -7 9 -45 13 -139 13 -121 0 -129 -1
-140 -21z"/>
<path d="M6518 15459 c-17 -9 -18 -50 -18 -635 l0 -625 138 3 137 3 5 380 c3
258 8 375 15 365 6 -8 46 -80 91 -160 l81 -145 108 0 109 0 65 120 c36 67 77
139 91 160 l25 40 5 -380 5 -380 138 -3 137 -3 0 620 c0 550 -2 621 -16 635
-22 22 -220 23 -251 1 -11 -8 -83 -132 -159 -275 -77 -143 -143 -260 -149
-260 -5 0 -72 117 -149 260 -76 143 -148 267 -159 275 -25 18 -221 21 -249 4z"/>
<path d="M9045 15458 c-3 -7 -4 -292 -3 -633 l3 -620 140 0 140 0 0 630 0 630
-138 3 c-104 2 -139 -1 -142 -10z"/>
<path d="M12142 14468 c-18 -18 -17 -242 2 -257 9 -8 54 -11 132 -9 l119 3 0
135 0 135 -120 3 c-85 2 -124 -1 -133 -10z"/>
<path d="M13572 14468 c-18 -18 -17 -242 2 -257 9 -8 54 -11 132 -9 l119 3 0
135 0 135 -120 3 c-85 2 -124 -1 -133 -10z"/>
<path d="M7727 14028 c31 -34 42 -60 58 -138 19 -90 19 -239 0 -309 -21 -81
-61 -155 -116 -215 -27 -30 -49 -57 -49 -60 0 -3 76 -6 169 -6 l168 0 7 -50
c4 -28 4 -65 1 -83 -5 -28 0 -39 37 -82 24 -28 56 -66 71 -84 l28 -34 48 54
c61 68 131 107 222 122 l71 12 26 63 c21 51 24 67 14 80 -31 44 -74 139 -89
195 -29 114 -1 300 64 432 34 67 87 105 141 99 107 -12 161 -112 117 -218 -16
-37 -15 -38 17 -79 18 -23 68 -82 111 -131 42 -49 77 -93 77 -98 0 -4 6 -8 14
-8 18 0 41 35 96 145 42 82 50 92 94 114 42 21 54 23 87 14 l39 -10 0 148 0
149 -772 0 -771 0 20 -22z"/>
<path d="M9910 13616 l0 -433 40 -6 c50 -6 93 -37 114 -81 33 -71 9 -143 -62
-185 -99 -58 -92 -40 -92 -233 l0 -170 61 4 c48 4 80 15 160 56 114 59 156 65
210 29 66 -44 86 -130 45 -192 -36 -55 -243 -152 -363 -170 l-43 -7 68 -77
c128 -148 287 -334 329 -386 42 -52 44 -53 110 -60 38 -3 78 -9 90 -12 l23 -5
2 1181 3 1181 -347 0 -348 0 0 -434z"/>
<path d="M13360 14032 c0 -10 6 -26 13 -36 12 -16 13 -14 9 18 -4 37 -22 51
-22 18z"/>
<path d="M7576 13999 c-43 -34 -49 -62 -30 -152 20 -98 15 -207 -10 -260 -27
-55 -96 -108 -149 -114 -57 -7 -136 27 -178 75 -38 43 -72 117 -88 192 -7 30
-19 69 -27 86 -24 49 -83 68 -137 43 -54 -25 -61 -81 -27 -206 52 -189 167
-322 325 -374 55 -19 62 -30 86 -148 l13 -61 -52 -46 c-78 -68 -103 -126 -112
-254 -7 -107 -15 -134 -56 -182 -12 -15 -24 -33 -26 -39 -3 -9 -38 4 -109 37
-95 45 -110 49 -174 48 -50 0 -85 -7 -122 -23 l-52 -23 -75 68 c-68 63 -73 70
-64 94 18 45 12 189 -11 261 -21 66 -76 155 -135 218 -53 57 -127 111 -151
111 -60 0 -105 -47 -105 -110 0 -26 15 -47 84 -118 88 -92 107 -121 125 -190
15 -53 -8 -154 -41 -190 -29 -30 -119 -56 -174 -49 -58 6 -142 49 -206 107
-29 26 -64 52 -77 59 -58 31 -141 -25 -141 -97 0 -30 8 -44 53 -86 69 -67 157
-125 237 -155 81 -30 238 -34 309 -8 23 9 49 14 56 9 8 -4 43 -33 79 -65 l65
-57 -15 -41 c-7 -23 -14 -71 -14 -108 0 -74 17 -117 74 -201 44 -64 58 -110
54 -175 l-3 -50 -55 -12 c-30 -6 -81 -17 -113 -23 -81 -16 -154 -77 -212 -174
-9 -15 -19 -16 -107 -5 l-98 12 -29 64 c-53 112 -173 208 -310 249 -25 7 -85
18 -132 24 -75 10 -91 9 -118 -4 -59 -31 -70 -104 -23 -156 24 -27 37 -32 111
-41 157 -19 242 -63 281 -144 35 -73 37 -116 6 -169 -58 -99 -133 -128 -313
-124 -122 3 -123 3 -150 -25 -22 -22 -28 -37 -28 -71 0 -83 46 -106 215 -106
117 0 192 15 272 56 57 29 152 114 174 155 13 26 16 27 81 22 126 -10 133 -12
154 -67 40 -107 90 -152 219 -201 61 -22 85 -38 128 -83 28 -31 52 -60 52 -64
0 -5 -31 -42 -69 -82 -98 -104 -116 -140 -116 -248 l0 -87 -50 -29 c-27 -16
-66 -38 -85 -49 l-35 -20 -54 30 c-99 56 -230 71 -346 42 -78 -19 -240 -101
-265 -133 -32 -39 -26 -88 14 -128 44 -44 72 -44 153 2 121 67 229 90 300 63
50 -18 101 -60 118 -96 20 -42 13 -128 -15 -183 -25 -49 -93 -112 -170 -158
-81 -48 -108 -92 -90 -147 14 -42 51 -69 95 -69 44 0 175 83 250 158 92 93
145 219 145 344 l0 47 82 49 c80 47 83 48 108 31 110 -72 186 -82 330 -46 95
24 96 24 155 6 33 -10 64 -22 69 -26 6 -5 4 -37 -4 -81 -27 -151 -10 -233 64
-316 l37 -40 -42 -90 -41 -89 -71 -12 c-168 -28 -296 -130 -386 -311 -28 -56
-51 -110 -51 -120 0 -80 101 -129 163 -80 14 11 44 58 66 105 70 144 149 205
265 205 64 0 97 -20 137 -81 59 -92 52 -172 -31 -375 -27 -65 21 -134 95 -134
61 0 97 47 144 190 55 165 28 359 -65 469 l-24 29 37 89 38 88 70 8 c94 10
164 46 218 110 82 99 111 125 157 137 25 7 52 18 61 26 13 12 19 10 41 -14 14
-15 40 -55 57 -89 17 -34 45 -78 62 -97 35 -41 116 -83 175 -92 l42 -6 20 -96
21 -97 -54 -55 c-119 -125 -157 -281 -119 -481 24 -130 46 -159 119 -159 27 0
44 8 67 30 33 34 34 45 8 206 -23 136 10 226 105 288 45 30 82 32 149 10 89
-30 146 -112 182 -259 22 -87 37 -111 80 -125 68 -23 134 24 134 93 0 37 -47
191 -74 246 -59 116 -172 215 -282 247 -59 17 -55 10 -88 151 l-14 62 38 25
c85 56 120 130 129 278 7 103 9 110 46 163 43 63 37 63 155 6 68 -33 82 -36
160 -36 69 0 93 5 128 23 l43 23 57 -49 c95 -83 93 -78 79 -155 -15 -91 2
-188 50 -287 28 -57 57 -96 123 -162 48 -48 99 -90 114 -94 64 -16 126 32 126
98 0 36 -8 48 -85 128 -89 92 -135 169 -135 226 0 55 29 131 60 157 35 30 118
51 172 44 57 -8 136 -51 207 -113 54 -47 68 -54 104 -54 68 1 114 53 103 116
-11 56 -165 175 -291 225 -77 30 -233 33 -308 5 l-48 -17 -63 50 c-89 71 -90
73 -75 118 18 54 16 160 -5 208 -9 22 -37 70 -63 107 -42 62 -46 74 -51 142
l-4 74 33 10 c19 6 61 16 95 21 33 5 77 16 96 24 48 20 114 81 145 135 25 43
27 44 67 38 23 -3 66 -8 97 -12 l56 -6 29 -61 c75 -157 247 -257 471 -274 81
-6 82 -6 112 25 40 39 43 97 8 138 -20 23 -36 28 -118 40 -167 23 -249 68
-290 159 -29 63 -25 119 13 172 62 86 160 118 324 107 l93 -7 30 31 c42 42 44
101 3 142 -25 25 -38 29 -118 35 -217 19 -419 -62 -505 -201 -20 -32 -24 -34
-78 -34 -32 0 -79 3 -103 6 -42 6 -46 9 -56 43 -17 56 -67 127 -113 160 -23
17 -74 41 -113 53 -60 19 -80 31 -128 81 -32 33 -58 63 -58 67 0 5 36 47 80
95 94 101 116 155 107 261 l-5 62 87 49 86 50 60 -33 c148 -81 327 -67 517 39
104 58 129 104 91 167 -35 60 -97 65 -180 15 -110 -66 -221 -90 -290 -64 -46
17 -103 61 -119 90 -8 16 -14 52 -14 82 0 101 71 197 198 269 94 54 118 116
67 176 -48 57 -92 52 -205 -23 -169 -112 -260 -260 -260 -424 l0 -66 -87 -52
c-86 -52 -88 -52 -108 -34 -72 66 -191 86 -303 52 -81 -24 -138 -26 -202 -7
l-45 13 2 49 c10 218 9 238 -15 281 -12 23 -36 58 -52 77 -17 18 -30 39 -30
45 0 6 17 48 39 94 l38 84 63 6 c146 13 290 124 375 289 61 117 68 142 50 184
-25 61 -109 81 -157 37 -10 -9 -36 -54 -58 -99 -50 -109 -115 -179 -183 -199
-105 -31 -163 -14 -217 66 -29 43 -35 61 -38 118 -3 57 1 82 28 157 45 125 48
163 16 201 -52 62 -129 46 -169 -34 -56 -111 -72 -181 -71 -303 0 -129 16
-184 80 -273 l34 -47 -36 -89 -36 -88 -67 -6 c-111 -9 -173 -46 -250 -147 -50
-66 -111 -110 -152 -110 -8 0 -20 -5 -27 -12 -18 -18 -39 6 -82 91 -21 42 -53
91 -72 110 -36 37 -112 76 -169 86 -36 7 -37 7 -52 83 -9 43 -17 86 -19 98 -2
13 14 37 48 71 60 60 107 148 125 231 15 72 6 248 -15 319 -27 87 -100 119
-160 72z m108 -24 c31 -32 61 -207 50 -299 -13 -122 -76 -247 -151 -302 -21
-16 -39 -29 -40 -29 -2 -1 6 -44 17 -96 12 -52 23 -106 26 -120 5 -23 12 -27
54 -32 102 -12 163 -60 224 -175 26 -50 59 -100 72 -113 21 -20 26 -21 37 -7
6 8 31 20 55 27 50 14 97 53 157 130 59 78 125 113 222 119 73 5 74 5 92 41
10 20 30 68 46 108 l27 71 -30 39 c-17 21 -44 65 -59 98 -26 55 -28 69 -28
180 0 101 4 130 24 185 52 143 82 175 140 150 52 -21 56 -56 14 -163 -37 -95
-50 -180 -39 -240 4 -19 23 -60 44 -91 59 -91 129 -114 243 -80 77 23 153 102
208 218 45 95 69 115 118 99 15 -5 34 -21 41 -36 11 -22 9 -34 -14 -92 -79
-197 -234 -331 -396 -343 l-67 -5 -32 -66 c-17 -36 -39 -87 -49 -112 l-19 -46
31 -29 c77 -74 99 -158 78 -293 -7 -44 -9 -96 -6 -115 6 -30 11 -35 34 -34 15
0 40 -5 55 -11 43 -17 118 -13 189 9 111 35 195 24 273 -36 52 -39 45 -41 180
42 l70 44 2 78 c3 170 85 300 261 412 84 54 120 62 152 30 20 -20 27 -74 12
-96 -4 -6 -34 -28 -67 -49 -144 -91 -200 -163 -211 -273 -9 -80 17 -134 83
-179 114 -76 215 -65 403 42 51 29 84 27 113 -7 22 -26 22 -73 -1 -96 -28 -28
-174 -100 -238 -117 -120 -31 -270 -12 -352 45 l-43 30 -102 -58 -102 -59 3
-75 c5 -106 -11 -150 -83 -228 -34 -36 -71 -78 -83 -94 -25 -33 -29 -66 -8
-66 8 0 24 -16 36 -35 30 -49 72 -77 161 -109 44 -16 95 -42 118 -63 43 -36
91 -117 91 -152 0 -30 25 -39 142 -46 l106 -8 26 41 c39 62 93 109 168 146 92
47 161 59 291 54 93 -4 111 -7 129 -26 26 -26 28 -75 3 -102 -16 -18 -31 -20
-146 -20 -165 0 -216 -17 -288 -96 -72 -78 -79 -148 -26 -240 52 -90 138 -135
292 -154 92 -12 110 -20 124 -57 9 -25 -4 -72 -24 -85 -20 -13 -113 -9 -195 8
-165 34 -290 126 -347 256 l-29 66 -95 7 c-53 3 -106 9 -117 12 -18 4 -26 -4
-44 -42 -47 -97 -119 -145 -247 -164 -90 -14 -146 -39 -137 -60 4 -9 7 -31 6
-50 -3 -54 14 -101 68 -186 75 -118 86 -181 51 -282 l-18 -52 91 -79 91 -79
45 21 c66 31 242 29 318 -2 121 -50 262 -164 262 -212 0 -43 -31 -74 -73 -74
-27 0 -45 9 -77 38 -118 106 -222 147 -322 127 -114 -24 -169 -94 -170 -214 0
-87 40 -164 133 -251 37 -35 72 -73 78 -85 25 -45 -15 -101 -71 -101 -36 0
-156 111 -210 194 -69 108 -97 256 -66 358 l12 40 -50 44 c-27 25 -68 60 -90
80 l-42 35 -39 -21 c-94 -49 -187 -44 -300 15 -83 43 -143 56 -143 31 0 -10
-12 -33 -26 -52 -39 -50 -53 -100 -54 -185 0 -122 -38 -200 -125 -261 l-42
-30 14 -61 c7 -34 19 -86 26 -116 l13 -54 55 -14 c155 -39 276 -173 328 -363
36 -130 23 -180 -50 -180 -44 0 -66 29 -89 115 -29 110 -51 156 -100 209 -63
68 -167 102 -234 76 -40 -15 -117 -91 -137 -135 -23 -50 -25 -192 -5 -279 15
-62 13 -80 -12 -108 -19 -22 -85 -24 -102 -4 -20 25 -40 116 -46 211 -12 171
45 312 161 403 l26 21 -16 78 c-33 159 -34 163 -66 163 -47 0 -134 38 -173 76
-20 19 -50 63 -68 97 -35 70 -56 100 -92 128 l-25 19 -25 -25 c-14 -14 -32
-25 -41 -25 -37 0 -97 -44 -150 -110 -84 -106 -159 -145 -264 -138 -52 3 -50
6 -112 -145 l-32 -78 26 -27 c65 -70 103 -195 94 -316 -6 -88 -53 -235 -89
-281 -25 -32 -79 -34 -109 -4 -26 26 -22 58 16 147 59 139 58 234 -4 329 -48
75 -94 98 -180 90 -118 -10 -195 -74 -267 -224 -25 -50 -52 -94 -60 -97 -53
-20 -114 11 -114 58 0 42 88 203 145 264 86 93 209 152 316 152 26 0 38 5 42
18 3 9 24 58 47 108 l43 92 -38 38 c-75 75 -88 134 -70 331 6 76 5 93 -6 96
-119 35 -167 36 -274 7 -117 -33 -197 -17 -282 54 l-29 25 -102 -61 -102 -60
0 -69 c0 -168 -83 -300 -259 -414 -91 -59 -122 -65 -155 -32 -49 49 -35 85 56
143 156 100 208 175 208 302 0 71 -1 73 -40 116 -58 63 -126 90 -212 84 -56
-4 -86 -14 -171 -57 -57 -28 -110 -51 -119 -51 -30 0 -68 40 -68 71 0 39 31
67 123 113 175 86 348 88 479 6 l49 -30 102 58 101 59 -3 81 c-4 104 18 154
103 242 35 36 71 79 80 97 15 30 15 32 -4 38 -11 4 -27 19 -35 35 -19 37 -61
71 -115 94 -179 75 -217 108 -247 218 l-16 56 -86 7 c-47 3 -102 8 -121 11
-32 4 -37 2 -55 -31 -27 -51 -115 -129 -179 -159 -81 -38 -144 -48 -278 -45
-112 4 -121 6 -139 28 -26 32 -24 67 5 96 24 24 28 25 130 18 175 -10 263 25
335 134 42 63 41 111 -2 195 -51 100 -135 146 -305 167 -40 5 -80 15 -88 22
-25 20 -35 56 -24 84 16 41 46 49 145 36 169 -23 294 -88 372 -195 24 -33 49
-78 55 -102 l11 -41 80 -7 c43 -4 98 -9 122 -13 43 -5 44 -5 58 30 20 47 82
114 128 138 21 10 70 24 111 30 40 6 91 19 114 29 l41 17 -4 59 c-6 84 -19
120 -69 195 -24 37 -48 78 -54 93 -15 40 -12 147 5 196 18 50 22 44 -85 140
l-78 70 -48 -22 c-41 -19 -66 -23 -149 -22 -115 1 -173 19 -274 84 -99 64
-151 117 -151 154 0 37 7 49 37 65 38 20 60 12 125 -44 74 -65 169 -115 231
-122 54 -6 153 21 186 50 64 59 83 191 40 282 -13 28 -59 87 -106 136 -68 71
-83 92 -83 118 0 36 30 71 61 71 57 0 188 -130 243 -241 55 -109 68 -248 31
-340 -4 -12 19 -39 85 -97 l91 -81 52 27 c41 22 65 27 122 27 62 0 81 -5 160
-42 106 -50 146 -57 154 -28 3 11 18 38 33 60 31 45 48 118 48 204 0 34 8 73
21 101 22 50 79 114 120 135 l26 14 -26 117 -27 117 -57 17 c-80 25 -137 61
-195 125 -63 69 -105 155 -133 270 -20 87 -20 88 -1 114 13 18 30 27 53 29 47
4 73 -27 89 -106 15 -74 56 -164 95 -210 42 -49 119 -86 185 -86 46 -1 62 4
101 31 105 73 135 174 105 354 l-19 110 23 24 c27 29 80 34 104 10z"/>
<path d="M7636 12926 c157 -73 163 -291 11 -365 -50 -24 -123 -27 -170 -7 -36
15 -87 66 -110 111 -13 24 -16 26 -17 10 0 -31 -45 -118 -74 -144 -17 -16 -24
-31 -20 -43 8 -25 -43 -73 -92 -87 -77 -21 -154 -7 -264 49 -49 25 -104 23
-142 -5 -19 -15 -20 -16 -3 -11 111 39 218 -5 266 -109 36 -77 19 -159 -46
-221 -67 -65 -154 -76 -241 -31 l-30 16 19 -57 c15 -45 17 -67 10 -102 -7 -38
-5 -49 11 -72 19 -27 19 -27 -8 -82 -41 -83 -95 -115 -249 -146 -63 -13 -110
-47 -122 -89 -6 -21 -2 -19 25 13 39 44 70 61 125 69 120 19 228 -75 228 -198
0 -98 -62 -174 -161 -196 l-52 -12 28 -17 c37 -23 90 -85 98 -114 4 -16 15
-26 35 -30 36 -7 49 -37 49 -109 0 -70 -33 -136 -108 -220 -56 -61 -62 -72
-62 -110 1 -47 13 -35 24 23 8 47 60 108 110 131 59 27 114 24 177 -9 43 -22
59 -38 81 -81 45 -86 33 -169 -34 -238 l-32 -33 60 0 c37 0 75 -8 102 -20 27
-12 53 -17 72 -14 41 9 83 -25 114 -89 29 -61 34 -103 22 -213 -9 -89 4 -132
45 -155 l21 -11 -20 29 c-49 67 -48 157 1 232 68 102 245 108 320 10 36 -47
52 -118 39 -170 l-10 -40 34 26 c47 36 96 55 143 55 30 0 42 5 55 25 23 35 84
34 155 -1 55 -28 94 -72 136 -154 37 -72 66 -93 132 -97 l58 -3 -46 13 c-91
26 -145 87 -156 176 -16 135 125 252 253 211 56 -18 98 -53 121 -99 20 -41 33
-44 33 -8 0 28 49 114 76 132 15 9 21 21 17 34 -8 30 13 57 62 81 66 32 155
25 255 -20 79 -35 126 -41 158 -18 18 12 12 13 -47 10 -118 -7 -194 52 -215
168 -15 87 50 191 139 220 46 15 128 7 163 -16 24 -16 25 -16 18 2 -20 50 -28
122 -18 157 6 20 6 37 2 37 -21 0 -31 41 -19 77 25 78 136 159 222 164 12 1
-4 5 -36 9 -76 10 -129 47 -162 113 -64 130 6 259 159 292 l29 6 -29 18 c-38
23 -84 77 -96 113 -7 20 -17 28 -34 28 -19 0 -29 8 -40 35 -33 80 -4 183 79
272 63 70 77 93 76 133 -1 69 -16 79 -21 13 -5 -70 -30 -116 -86 -154 -29 -20
-48 -24 -107 -24 -62 0 -77 4 -112 28 -104 72 -119 207 -33 300 l38 42 -68 1
c-50 0 -77 6 -104 22 -29 17 -42 20 -57 11 -29 -15 -53 -3 -98 47 -54 61 -67
125 -51 239 10 73 10 87 -5 118 -9 20 -29 44 -43 53 l-27 18 18 -25 c80 -111
51 -251 -66 -310 -61 -32 -153 -24 -204 17 -61 50 -84 98 -81 172 3 65 -1 73
-23 46 -18 -22 -78 -51 -124 -60 -23 -4 -47 -17 -58 -31 -22 -27 -45 -29 -114
-8 -63 19 -117 70 -165 156 -46 81 -73 106 -123 113 l-40 7 51 -25z m564 -223
c0 -75 70 -170 145 -199 68 -26 153 -16 210 24 25 18 47 32 49 32 2 0 7 -15
10 -34 8 -41 51 -106 91 -138 22 -17 41 -22 74 -21 25 1 50 -2 56 -7 6 -5 31
-14 57 -20 45 -12 46 -13 33 -34 -23 -36 -36 -105 -29 -152 15 -105 120 -194
227 -194 39 0 48 -3 44 -14 -43 -111 -23 -236 38 -252 14 -3 25 -10 25 -14 0
-5 16 -30 36 -56 34 -44 35 -49 19 -59 -60 -35 -83 -56 -109 -98 -25 -40 -30
-59 -30 -110 1 -77 27 -132 89 -183 44 -38 44 -38 22 -52 -42 -29 -79 -67 -98
-104 -20 -40 -25 -103 -9 -113 6 -3 10 -39 10 -79 l0 -72 -67 0 c-146 1 -243
-102 -230 -243 3 -31 8 -65 12 -77 6 -20 2 -21 -59 -26 -46 -4 -79 -14 -110
-32 -49 -29 -66 -51 -66 -89 0 -13 -11 -34 -24 -46 -14 -13 -30 -36 -36 -52
l-12 -29 -34 30 c-58 50 -93 64 -164 65 -54 0 -73 -5 -113 -28 -51 -30 -101
-96 -112 -148 l-7 -29 -34 26 c-76 58 -183 72 -224 29 -15 -16 -35 -25 -54
-25 -17 0 -50 -9 -72 -19 l-41 -19 -12 53 c-38 170 -233 241 -368 135 l-27
-21 -17 45 c-40 105 -101 164 -160 152 -18 -3 -41 0 -58 8 -14 8 -43 17 -64
21 l-36 7 21 42 c28 54 30 147 4 196 -44 84 -119 133 -203 134 -29 1 -53 4
-53 7 0 4 7 23 15 42 18 42 19 106 4 160 -7 28 -19 42 -44 54 -19 9 -39 29
-45 44 -6 15 -22 37 -36 50 -27 25 -31 39 -11 39 29 0 97 61 122 110 49 98 19
230 -66 289 -38 26 -48 41 -29 41 19 0 91 74 112 113 15 29 18 49 13 76 -4 20
-9 70 -12 111 l-4 75 79 0 c69 0 83 3 120 28 52 34 92 93 103 153 8 42 4 73
-16 141 -7 20 -5 22 28 16 82 -13 207 53 207 110 0 14 7 30 16 37 8 8 27 33
41 57 l25 43 43 -38 c64 -57 136 -74 215 -52 71 19 143 94 156 160 7 33 24 39
45 13 22 -26 94 -54 148 -56 42 -2 54 2 78 26 16 15 40 27 54 27 13 1 35 7 49
15 34 19 50 19 50 -2z"/>
<path d="M7707 12520 c-80 -60 -212 -63 -298 -6 l-37 25 -26 -30 c-14 -16 -26
-36 -26 -44 0 -56 -74 -115 -166 -135 l-51 -11 0 -67 c1 -149 -99 -259 -246
-270 l-59 -5 6 -46 c3 -25 8 -63 12 -83 l6 -38 574 0 573 0 -2 370 -1 370
-111 -1 c-105 0 -112 -2 -148 -29z"/>
<path d="M8546 12477 c-16 -12 -16 -15 -2 -42 14 -27 16 -154 16 -1109 0
-1075 0 -1079 20 -1061 11 10 22 33 26 52 11 58 125 133 204 133 14 0 16 9 12
59 -11 150 92 269 247 288 l53 6 -6 46 c-3 25 -8 63 -12 84 -9 51 17 115 66
166 l38 39 -24 23 c-13 13 -36 47 -51 77 -53 108 -29 227 62 311 l45 41 -23
35 c-12 19 -27 35 -34 35 -21 0 -60 58 -72 107 -15 56 -34 84 -129 181 -38 39
-96 108 -128 154 -33 45 -75 100 -95 122 -101 114 -179 220 -179 242 0 27 -8
30 -34 11z"/>
<path d="M6797 11038 c4 -13 8 -58 8 -101 0 -69 2 -78 20 -82 73 -20 101 -33
139 -67 76 -66 109 -169 83 -264 l-13 -51 35 -13 c20 -8 50 -12 68 -11 17 1
44 -4 60 -13 32 -16 103 -90 103 -106 0 -6 119 -10 335 -10 l335 0 -1 353 c0
193 -3 360 -5 370 -5 16 -42 17 -590 17 l-585 0 8 -22z"/>
<path d="M8350 12915 c-32 -18 -26 -18 30 -1 32 11 38 15 20 15 -14 0 -36 -6
-50 -14z"/>
<path d="M7384 12865 c-9 -14 -15 -28 -12 -30 2 -2 12 9 22 25 21 36 13 40
-10 5z"/>
<path d="M9140 12397 c3 -3 25 -12 49 -21 36 -12 42 -12 30 -1 -13 14 -90 35
-79 22z"/>
<path d="M6625 12270 c-3 -16 -2 -37 4 -47 8 -14 10 -8 11 30 0 54 -5 60 -15
17z"/>
<path d="M9536 11475 c24 -39 24 -40 24 -28 0 6 -9 21 -21 34 l-20 24 17 -30z"/>
<path d="M6350 11347 c0 -17 31 -67 42 -67 7 0 5 7 -4 18 -8 9 -20 26 -26 37
-6 11 -12 16 -12 12z"/>
<path d="M9521 11214 c-12 -14 -41 -34 -64 -45 -23 -10 -34 -19 -24 -19 32 0
85 28 103 54 23 36 13 42 -15 10z"/>
<path d="M9292 10525 c0 -16 2 -22 5 -12 2 9 2 23 0 30 -3 6 -5 -1 -5 -18z"/>
<path d="M6704 10396 c11 -9 27 -16 35 -15 14 0 14 1 1 6 -8 3 -24 10 -35 15
-20 9 -20 9 -1 -6z"/>
<path d="M8532 9910 c-13 -16 -18 -30 -13 -30 6 0 17 14 26 30 9 17 14 30 12
30 -2 0 -13 -13 -25 -30z"/>
<path d="M7520 9854 l-35 -14 35 5 c19 3 39 10 44 15 14 14 -2 12 -44 -6z"/>
<path d="M9228 13402 c-10 -16 -38 -53 -64 -81 l-46 -51 43 -56 c24 -30 51
-65 59 -77 12 -17 16 -69 18 -278 l3 -258 34 -11 c19 -6 50 -22 71 -36 l36
-25 62 39 61 38 6 69 c4 39 10 84 14 101 7 33 4 37 -123 178 -9 11 -21 27 -27
37 -5 9 -35 44 -65 78 l-55 62 -5 150 c-5 148 -5 150 -22 121z"/>
<path d="M9619 12275 l-56 -34 -5 -78 c-6 -101 -37 -169 -115 -254 l-60 -64
19 -32 c24 -40 62 -63 153 -94 57 -19 81 -35 131 -84 38 -38 67 -77 78 -107
20 -51 32 -58 109 -58 l47 0 0 203 c1 111 2 282 4 380 2 97 1 177 -3 177 -35
1 -149 34 -189 54 -28 14 -53 26 -54 25 -2 0 -28 -16 -59 -34z"/>
<path d="M8810 10133 c-21 -30 -26 -52 -31 -132 -8 -135 -28 -189 -101 -267
l-60 -64 17 -69 17 -69 45 -12 c108 -31 239 -151 296 -271 l32 -69 110 2 110
3 3 468 c1 257 1 467 0 467 -2 0 -25 -7 -52 -15 -94 -29 -205 -12 -296 44 -48
29 -61 27 -90 -16z"/>
<path d="M7918 9883 c-10 -2 -20 -14 -23 -26 -6 -28 -535 -4616 -535 -4639 0
-12 94 -81 285 -208 157 -104 289 -190 294 -190 22 0 581 381 581 395 0 46
-531 4606 -540 4638 -11 37 -20 41 -62 30z m-1 -205 c-3 -7 -5 -2 -5 12 0 14
2 19 5 13 2 -7 2 -19 0 -25z"/>
<path d="M7426 9529 c-17 -41 -17 -41 14 -88 43 -69 70 -154 76 -246 8 -112
-13 -204 -83 -362 -4 -10 32 -13 161 -13 118 0 166 3 166 11 0 17 79 678 85
712 l5 27 -204 0 -204 0 -16 -41z"/>
<path d="M8560 9234 c0 -53 15 -64 85 -64 36 0 65 4 65 8 0 15 -44 51 -82 67
-53 22 -68 19 -68 -11z"/>
<path d="M1420 8074 c0 -19 138 -413 198 -564 l70 -175 2946 -3 c1766 -1 2946
2 2946 7 0 15 79 673 85 709 l6 32 -3126 0 c-1719 0 -3125 -3 -3125 -6z"/>
<path d="M2076 6558 c48 -92 327 -514 457 -690 l21 -28 2423 0 c1333 0 2423 2
2423 4 0 10 81 675 86 709 l6 37 -2716 0 -2717 0 17 -32z"/>
<path d="M8646 4586 c-51 -50 -45 -293 8 -328 6 -4 23 -8 38 -8 43 0 61 38 66
135 6 112 -4 172 -33 201 -30 30 -50 30 -79 0z"/>
</g>
</svg>
